<?xml version="1.0" encoding="utf-8"?>
<!-- Generator: Adobe Illustrator 22.1.0, SVG Export Plug-In . SVG Version: 6.00 Build 0)  -->
<svg version="1.1" id="Слой_1" xmlns="http://www.w3.org/2000/svg" xmlns:xlink="http://www.w3.org/1999/xlink" x="0px" y="0px"
	 viewBox="0 0 612 792" style="enable-background:new 0 0 612 792;" xml:space="preserve">
<style type="text/css">
	.st0{fill:none;stroke:#0D0E0F;stroke-width:23;}
</style>
<path class="st0" d="M216.3,515.3c0.6,0.3,1.5,0.6,2.1,0.5c0,0,71.8-9.6,110.9-52.7s69.3-84,69.3-84c0.4-0.5,0.1-0.9-0.5-0.9H372
	c-0.7,0-0.7-0.2-0.1-0.6c0,0,33.9-20.3,43.4-27c9.5-6.7,46.9-79.2,40.3-109.6s-168.1,80.2-168.1,80.2c-0.5,0.3-1.1,1.1-1.2,1.8
	l-7.4,44.8c-0.1,0.6-0.4,0.7-0.5,0l-6.5-26.5c-0.1-0.6-0.6-0.7-0.9-0.2c0,0-46.1,59.9-59.8,98.9c-13.6,39-6.8,67.1-6.8,67.1
	c0.1,0.6,0.7,1.4,1.3,1.7L216.3,515.3z"/>
<path class="st0" d="M393.9,312.5C311,377.7,216.5,495.3,154.7,606.9"/>
</svg>
